<svg width="155" height="93" viewBox="0 0 155 93" fill="none" xmlns="http://www.w3.org/2000/svg">
<path d="M66.125 76.75V93H2.625V79.25L31.875 48.5C34.4583 45.5417 36.5417 42.8958 38.125 40.5625C39.7083 38.1875 40.8542 36.0417 41.5625 34.125C42.3125 32.2083 42.6875 30.4792 42.6875 28.9375C42.6875 26.3125 42.2917 24.125 41.5 22.375C40.75 20.5833 39.625 19.2292 38.125 18.3125C36.6667 17.3958 34.8542 16.9375 32.6875 16.9375C30.5208 16.9375 28.625 17.5625 27 18.8125C25.375 20.0625 24.1042 21.7708 23.1875 23.9375C22.3125 26.1042 21.875 28.5417 21.875 31.25H0.75C0.75 25.6667 2.10417 20.5625 4.8125 15.9375C7.5625 11.3125 11.375 7.625 16.25 4.875C21.125 2.08333 26.7708 0.6875 33.1875 0.6875C39.8958 0.6875 45.5208 1.72917 50.0625 3.8125C54.6042 5.89583 58.0208 8.91667 60.3125 12.875C62.6458 16.7917 63.8125 21.5208 63.8125 27.0625C63.8125 30.2292 63.3125 33.2708 62.3125 36.1875C61.3125 39.1042 59.875 42 58 44.875C56.125 47.7083 53.8333 50.625 51.125 53.625C48.4583 56.625 45.4167 59.8125 42 63.1875L30.25 76.75H66.125Z" fill="white"/>
<path d="M100.125 2V93H78.1875V2H100.125ZM154.438 2L119.188 48.125L98.5625 70.6875L94.5625 50.5625L107.75 30.5625L127.375 2H154.438ZM128.5 93L105 52L122.062 39.4375L154.438 93H128.5Z" fill="white"/>
</svg>
