<svg width="121" height="118" viewBox="0 0 121 118" fill="none" xmlns="http://www.w3.org/2000/svg">
<path d="M106.6 117.162L71.0125 81.575L84.6625 67.925L120.25 103.512L106.6 117.162ZM16.9 117.162L3.25 103.512L48.1 58.6625L37.05 47.6125L32.5 52.1625L24.2125 43.875V57.2L19.6625 61.75L0 42.0875L4.55 37.5375H17.875L9.75 29.4125L32.825 6.3375C34.9917 4.17083 37.3208 2.6 39.8125 1.625C42.3042 0.65 44.85 0.1625 47.45 0.1625C50.05 0.1625 52.5958 0.65 55.0875 1.625C57.5792 2.6 59.9083 4.17083 62.075 6.3375L47.125 21.2875L55.25 29.4125L50.7 33.9625L61.75 45.0125L76.375 30.3875C75.9417 29.1958 75.5896 27.95 75.3187 26.65C75.0479 25.35 74.9125 24.05 74.9125 22.75C74.9125 16.3583 77.1062 10.9688 81.4937 6.58125C85.8812 2.19375 91.2708 0 97.6625 0C99.2875 0 100.831 0.1625 102.294 0.4875C103.756 0.8125 105.246 1.3 106.762 1.95L90.675 18.0375L102.375 29.7375L118.462 13.65C119.221 15.1667 119.735 16.6562 120.006 18.1187C120.277 19.5812 120.412 21.125 120.412 22.75C120.412 29.1417 118.219 34.5312 113.831 38.9187C109.444 43.3062 104.054 45.5 97.6625 45.5C96.3625 45.5 95.0625 45.3917 93.7625 45.175C92.4625 44.9583 91.2167 44.5792 90.025 44.0375L16.9 117.162Z" fill="white"/>
</svg>
