<svg width="124" height="116" viewBox="0 0 124 116" fill="none" xmlns="http://www.w3.org/2000/svg">
<path d="M55.8333 115.75V102.917H105.167V57.3583C105.167 44.8458 100.978 34.2316 92.6021 25.5156C84.2257 16.7997 74.025 12.4417 62 12.4417C49.975 12.4417 39.7743 16.7997 31.3979 25.5156C23.0215 34.2316 18.8333 44.8458 18.8333 57.3583V96.5H12.6667C9.275 96.5 6.37153 95.2434 3.95625 92.7302C1.54097 90.217 0.333336 87.1958 0.333336 83.6667V70.8333C0.333336 68.5875 0.872919 66.4753 1.95209 64.4969C3.03125 62.5184 4.54722 60.941 6.5 59.7646L6.9625 51.2625C7.78472 43.9903 9.81458 37.2528 13.0521 31.05C16.2896 24.8472 20.3493 19.4465 25.2313 14.8479C30.1132 10.2493 35.7146 6.66667 42.0354 4.1C48.3562 1.53333 55.0111 0.25 62 0.25C68.9889 0.25 75.618 1.53333 81.8875 4.1C88.1569 6.66667 93.7583 10.2226 98.6917 14.7677C103.625 19.3128 107.685 24.6868 110.871 30.8896C114.057 37.0924 116.112 43.8299 117.037 51.1021L117.5 59.4437C119.453 60.4062 120.969 61.85 122.048 63.775C123.127 65.7 123.667 67.7319 123.667 69.8708V84.6292C123.667 86.7681 123.127 88.8 122.048 90.725C120.969 92.65 119.453 94.0938 117.5 95.0562V102.917C117.5 106.446 116.292 109.467 113.877 111.98C111.462 114.493 108.558 115.75 105.167 115.75H55.8333ZM43.5 70.8333C41.7528 70.8333 40.2882 70.2184 39.1063 68.9885C37.9243 67.7587 37.3333 66.2347 37.3333 64.4167C37.3333 62.5986 37.9243 61.0746 39.1063 59.8448C40.2882 58.6149 41.7528 58 43.5 58C45.2472 58 46.7118 58.6149 47.8937 59.8448C49.0757 61.0746 49.6667 62.5986 49.6667 64.4167C49.6667 66.2347 49.0757 67.7587 47.8937 68.9885C46.7118 70.2184 45.2472 70.8333 43.5 70.8333ZM80.5 70.8333C78.7528 70.8333 77.2882 70.2184 76.1062 68.9885C74.9243 67.7587 74.3333 66.2347 74.3333 64.4167C74.3333 62.5986 74.9243 61.0746 76.1062 59.8448C77.2882 58.6149 78.7528 58 80.5 58C82.2472 58 83.7118 58.6149 84.8937 59.8448C86.0757 61.0746 86.6667 62.5986 86.6667 64.4167C86.6667 66.2347 86.0757 67.7587 84.8937 68.9885C83.7118 70.2184 82.2472 70.8333 80.5 70.8333ZM25.1542 60.8875C24.4347 49.5514 27.7236 39.8194 35.0208 31.6917C42.3181 23.5639 51.4139 19.5 62.3083 19.5C71.4556 19.5 79.4979 22.5212 86.4354 28.5635C93.3729 34.6059 97.5611 42.3326 99 51.7437C89.6472 51.6368 81.0396 49.0167 73.1771 43.8833C65.3146 38.75 59.2764 31.7986 55.0625 23.0292C53.4181 31.5847 49.9493 39.2045 44.6562 45.8885C39.3632 52.5726 32.8625 57.5722 25.1542 60.8875Z" fill="white"/>
</svg>
