<svg width="684" height="803" viewBox="0 0 684 803" fill="none" xmlns="http://www.w3.org/2000/svg">
<path opacity="0.25" d="M171.896 430.374C102.215 394.503 59.8859 368.03 13.9245 287.622C13.6161 287.083 13.4313 286.453 13.3985 285.833C7.7669 179.398 17.885 124.2 49.4291 33.7601C50.1428 31.7139 52.3691 30.5855 54.4323 31.2486L187.708 74.083M171.896 430.374C183.717 451.395 197.735 485.983 216.335 506.429C234.928 526.867 253.566 544.134 290.84 556.114M171.896 430.374L159.945 381.232M648.193 266.352L592.049 386.837C591.926 387.103 591.773 387.354 591.594 387.587L529.847 467.839C529.699 468.033 529.533 468.212 529.351 468.375L497.993 496.572M648.193 266.352L659.59 230.892M648.193 266.352L744.051 297.16C746.171 297.842 747.317 300.152 746.604 302.261C718.95 384.078 693.292 424.169 619.648 481.079C619.326 481.329 618.952 481.535 618.569 481.676C573.151 498.308 546.802 502.656 497.993 496.572M466.361 525.014C544.604 546.832 589.183 550.403 672.703 499.138C673.028 498.939 673.337 498.681 673.592 498.398C752.138 411.289 773.36 360.818 791.728 272.119C792.152 270.068 790.922 268.014 788.907 267.445L659.59 230.892M466.361 525.014L405.338 556.406C404.964 556.599 404.562 556.731 404.146 556.798L343.679 566.571C343.204 566.648 342.718 566.638 342.246 566.543L290.84 556.114M466.361 525.014L497.993 496.572M659.59 230.892L668.892 165.556C669.181 163.523 667.849 161.593 665.857 161.099C496.085 119.002 397.866 86.5842 222.092 12.3235C220.434 11.6231 218.475 12.092 217.422 13.5516C207.304 27.5811 194.746 54.4915 187.708 74.083M290.84 556.114L319.668 565.379C321.763 566.052 322.914 568.308 322.262 570.41C304.481 627.764 301.009 662.567 307.526 724.89C307.681 726.369 308.672 727.666 310.053 728.218C352.847 745.325 368.682 758.344 366.533 787.58C366.349 790.072 363.848 791.666 361.469 790.901L96.0727 705.604C93.8972 704.904 92.7444 702.51 93.6322 700.405C106.571 669.718 126.301 667.716 173.933 684.228C175.417 684.742 177.108 684.344 178.191 683.207C222.82 636.335 239.636 605.685 259.705 550.191C260.439 548.16 262.653 547.054 264.708 547.715L290.84 556.114ZM187.708 74.083L175.112 113.276M175.112 113.276L148.721 246.401C148.663 246.695 148.638 246.995 148.646 247.295L151.512 346.189C151.52 346.469 151.558 346.747 151.624 347.019L159.945 381.232M175.112 113.276L79.2373 82.462C77.1242 81.7829 74.8504 82.9886 74.1936 85.1088C44.6941 180.33 43.7568 232.693 78.5329 319.465C78.7119 319.912 78.9801 320.338 79.3058 320.693C106.644 350.446 123.644 364.95 159.945 381.232M354.154 221.051C352.757 217.742 352 214.952 351.882 212.681C351.81 210.288 352.417 207.386 353.703 203.974C354.989 200.563 357.752 197.847 361.992 195.828C366.4 193.732 370.858 193.534 375.366 195.233L425.442 214.11C430.072 215.855 433.29 218.947 435.096 223.385C437.069 227.747 437.207 232.182 435.507 236.69L354.764 450.883C352.56 456.731 349.36 460.604 345.166 462.502C337.784 465.842 331.839 466.662 327.331 464.963C322.823 463.264 319.459 461.3 317.238 459.071C314.971 456.964 313.207 454.629 311.946 452.067C309.243 446.317 309.017 440.456 311.268 434.486L385.741 236.924L362.896 228.313C358.632 226.705 355.718 224.285 354.154 221.051Z" stroke="#FFB13D" stroke-width="23"/>
</svg>
